<svg width="82" height="102" viewBox="0 0 82 102" fill="none" xmlns="http://www.w3.org/2000/svg"><path d="M15.84 67.027C15.3866 67.027 15.02 67.3918 15.02 67.843 15.02 68.2943 15.3866 68.659 15.84 68.659H17.3988V72.624C17.3988 73.0752 17.7654 73.44 18.2188 73.44H66.1601C66.6136 73.44 66.9801 73.0752 66.9801 72.624V8.97597C66.9801 8.52473 66.6136 8.15997 66.1601 8.15997H18.2197C17.7662 8.15997 17.3997 8.52473 17.3997 8.97597V12.2791H15.8408C15.3874 12.2791 15.0208 12.6439 15.0208 13.0951 15.0208 13.5464 15.3874 13.9111 15.8408 13.9111H17.3997V17.2567H15.8408C15.3874 17.2567 15.0208 17.6215 15.0208 18.0727 15.0208 18.524 15.3874 18.8887 15.8408 18.8887H17.3997V22.2343H15.8408C15.3874 22.2343 15.0208 22.5991 15.0208 23.0503 15.0208 23.5016 15.3874 23.8663 15.8408 23.8663H17.3997V27.2119H15.8408C15.3874 27.2119 15.0208 27.5767 15.0208 28.0279 15.0208 28.4792 15.3874 28.8439 15.8408 28.8439H17.3997V32.1887H15.8408C15.3874 32.1887 15.0208 32.5535 15.0208 33.0047 15.0208 33.456 15.3874 33.8207 15.8408 33.8207H17.3997V37.1663H15.8408C15.3874 37.1663 15.0208 37.5311 15.0208 37.9823 15.0208 38.4336 15.3874 38.7983 15.8408 38.7983H17.3997V42.1439H15.8408C15.3874 42.1439 15.0208 42.5087 15.0208 42.9599 15.0208 43.4112 15.3874 43.7759 15.8408 43.7759H17.3997V47.1207H15.8408C15.3874 47.1207 15.0208 47.4855 15.0208 47.9367 15.0208 48.388 15.3874 48.7527 15.8408 48.7527H17.3997V52.0983H15.8408C15.3874 52.0983 15.0208 52.4631 15.0208 52.9143 15.0208 53.3656 15.3874 53.7303 15.8408 53.7303H17.3997V57.0759H15.8408C15.3874 57.0759 15.0208 57.4407 15.0208 57.8919 15.0208 58.3432 15.3874 58.7079 15.8408 58.7079H17.3997V62.0527H15.8408C15.3874 62.0527 15.0208 62.4174 15.0208 62.8687 15.0208 63.3199 15.3874 63.6847 15.8408 63.6847H17.3997V67.0303H15.84V67.027zM19.0397 63.6814H20.5985C21.0519 63.6814 21.4185 63.3167 21.4185 62.8654 21.4185 62.4142 21.0519 62.0494 20.5985 62.0494H19.0397V58.7046H20.5985C21.0519 58.7046 21.4185 58.3399 21.4185 57.8886 21.4185 57.4374 21.0519 57.0726 20.5985 57.0726H19.0397V53.727H20.5985C21.0519 53.727 21.4185 53.3623 21.4185 52.911 21.4185 52.4598 21.0519 52.095 20.5985 52.095H19.0397V48.7494H20.5985C21.0519 48.7494 21.4185 48.3847 21.4185 47.9334 21.4185 47.4822 21.0519 47.1174 20.5985 47.1174H19.0397V43.7727H20.5985C21.0519 43.7727 21.4185 43.4079 21.4185 42.9567 21.4185 42.5054 21.0519 42.1407 20.5985 42.1407H19.0397V38.7951H20.5985C21.0519 38.7951 21.4185 38.4303 21.4185 37.9791 21.4185 37.5278 21.0519 37.1631 20.5985 37.1631H19.0397V33.8175H20.5985C21.0519 33.8175 21.4185 33.4527 21.4185 33.0015 21.4185 32.5502 21.0519 32.1855 20.5985 32.1855H19.0397V28.8407H20.5985C21.0519 28.8407 21.4185 28.4759 21.4185 28.0247 21.4185 27.5734 21.0519 27.2087 20.5985 27.2087H19.0397V23.8631H20.5985C21.0519 23.8631 21.4185 23.4983 21.4185 23.0471 21.4185 22.5958 21.0519 22.2311 20.5985 22.2311H19.0397V18.8855H20.5985C21.0519 18.8855 21.4185 18.5207 21.4185 18.0695 21.4185 17.6182 21.0519 17.2535 20.5985 17.2535H19.0397V13.9079H20.5985C21.0519 13.9079 21.4185 13.5431 21.4185 13.0919 21.4185 12.6406 21.0519 12.2759 20.5985 12.2759H19.0397V9.79197H65.341V71.808H19.0397V68.659H20.5985C21.0519 68.659 21.4185 68.2943 21.4185 67.843 21.4185 67.3918 21.0519 67.027 20.5985 67.027H19.0397V63.6814z" fill="#162721"/><path d="M27.2028 56.0151H58.1275C58.5809 56.0151 58.9475 55.6504 58.9475 55.1991 58.9475 54.7479 58.5809 54.3831 58.1275 54.3831H27.2028C26.7494 54.3831 26.3828 54.7479 26.3828 55.1991 26.3828 55.6504 26.7494 56.0151 27.2028 56.0151z" fill="#162721"/><path d="M27.2028 63.4546H58.1275C58.5809 63.4546 58.9475 63.0899 58.9475 62.6386 58.9475 62.1874 58.5809 61.8226 58.1275 61.8226H27.2028C26.7494 61.8226 26.3828 62.1874 26.3828 62.6386 26.3828 63.0899 26.7494 63.4546 27.2028 63.4546z" fill="#162721"/><path d="M44.7689 45.9612C47.3396 45.9612 49.2895 45.6038 49.4732 45.5687 49.5068 45.5622 49.5363 45.5467 49.5691 45.5361 49.5954 45.5279 49.62 45.5214 49.6454 45.5099 49.7315 45.4724 49.8118 45.4243 49.8799 45.3606 49.8815 45.359 49.884 45.3582 49.8857 45.3565 49.8922 45.35 49.8939 45.3418 49.9004 45.3353 49.9611 45.2741 50.0095 45.2031 50.048 45.1248 50.0603 45.1003 50.071 45.0766 50.0808 45.0505 50.089 45.0285 50.103 45.0097 50.1087 44.9861 50.1866 44.7094 51.4002 40.2802 50.6384 35.6886 52.8098 35.1345 54.5203 34.1365 55.7142 32.7053 58.8228 28.9819 58.0479 19.961 58.0135 19.5783 57.9938 19.362 57.8889 19.1621 57.7208 19.0234 57.5543 18.8847 57.3378 18.8194 57.1197 18.839 56.7359 18.8749 47.6831 19.7709 44.5737 23.4951 43.9136 24.2858 43.4249 25.2527 43.0952 26.3625 37.7324 24.2735 30.7001 24.0728 30.3098 24.063 30.3024 24.063 30.2959 24.063 30.2901 24.063 29.8465 24.063 29.4816 24.4155 29.4701 24.8594 29.457 25.376 29.211 37.5694 33.6792 42.2402 36.6017 45.297 41.2625 45.9612 44.7689 45.9612zM34.8674 41.1174C31.8883 38.0036 31.261 30.6098 31.1364 26.9827L47.6159 44.1717C44.6655 44.4687 38.24 44.6417 34.8674 41.1174zM46.3613 30.2238C49.9652 33.9897 49.3535 40.2655 48.8451 43.0897L32.2876 25.819C35.894 26.112 43.3593 27.0863 46.3613 30.2238zM54.453 31.6649C53.4945 32.8138 52.0914 33.6273 50.2891 34.0965 49.9185 32.7526 49.3486 31.4348 48.4958 30.2442L56.4711 21.6615C56.5293 24.4196 56.3456 29.398 54.453 31.6649zM45.8357 24.5396C47.6626 22.3502 52.2784 21.2584 55.0557 20.7811L47.4314 28.9859C46.6696 28.2238 45.6996 27.5792 44.6073 27.0349 44.8738 26.0492 45.2797 25.2054 45.8357 24.5396z" fill="#162721"/></svg>