<?xml version="1.0" standalone="no"?>
<!DOCTYPE svg PUBLIC "-//W3C//DTD SVG 20010904//EN"
 "http://www.w3.org/TR/2001/REC-SVG-20010904/DTD/svg10.dtd">
<svg version="1.0" xmlns="http://www.w3.org/2000/svg"
 width="742.000000pt" height="742.000000pt" viewBox="0 0 742.000000 742.000000"
 preserveAspectRatio="xMidYMid meet">
<metadata>
Created by potrace 1.11, written by Peter Selinger 2001-2013
</metadata>
<g transform="translate(0.000000,742.000000) scale(0.100000,-0.100000)"
fill="#000000" stroke="none">
<path d="M2558 6345 c-1 -1 -59 -5 -128 -9 -554 -26 -1070 -221 -1486 -561
-66 -54 -280 -267 -336 -335 -151 -183 -298 -427 -399 -665 -68 -159 -151
-462 -174 -631 -3 -22 -9 -65 -13 -96 -9 -57 -1 -72 24 -49 8 8 68 25 124 37
36 7 184 7 217 0 15 -4 39 -8 52 -11 101 -19 260 -80 356 -136 l68 -39 -7 137
c-3 76 -8 152 -11 168 -24 136 -41 207 -62 252 -23 49 -39 67 -130 140 -53 43
-128 121 -157 163 -38 57 -89 180 -74 180 3 0 36 -39 74 -87 110 -140 182
-204 273 -247 63 -29 86 -24 118 24 33 48 35 149 4 229 -17 45 -69 130 -98
159 -45 46 -83 103 -93 141 -19 72 4 159 57 216 53 57 67 62 35 11 -47 -73
-56 -157 -26 -224 8 -18 41 -61 73 -95 109 -117 140 -188 142 -332 1 -61 -10
-195 -17 -207 -8 -12 -18 -154 -17 -229 1 -129 48 -228 149 -311 l49 -40 7 33
c4 19 10 54 13 78 26 191 118 440 228 622 136 222 373 438 597 543 314 146
676 169 1025 65 55 -16 109 -34 120 -39 196 -87 279 -136 440 -256 109 -82
136 -105 228 -190 l47 -44 38 42 c43 49 31 35 288 333 109 127 210 244 225
260 107 121 149 171 149 181 0 14 -197 199 -300 280 -361 286 -781 456 -1255
510 -33 3 -69 8 -80 10 -11 2 -90 7 -175 10 -85 3 -160 7 -167 9 -6 2 -13 2
-15 0z"/>
<path d="M2142 4206 l1 -176 99 0 c91 0 98 1 98 20 0 18 -7 20 -73 20 l-73 0
0 153 0 152 -26 3 -26 3 0 -175z"/>
<path d="M2391 4205 l-1 -176 107 3 c93 3 108 5 111 21 3 15 -6 17 -80 17
l-83 0 -1 60 0 60 62 0 c44 0 63 4 67 14 9 22 -2 26 -68 26 l-61 0 1 53 0 52
80 5 c62 4 80 8 80 20 0 12 -20 16 -106 18 l-107 3 -1 -176z"/>
<path d="M2703 4361 c-23 -14 -34 -30 -39 -56 -9 -50 8 -82 53 -101 79 -34 88
-39 95 -49 14 -18 8 -52 -10 -68 -23 -21 -58 -22 -96 -2 -38 20 -56 19 -56 -3
0 -12 14 -25 40 -37 78 -35 162 0 176 72 10 51 -9 81 -64 104 -88 38 -92 41
-92 71 0 40 36 55 91 39 30 -9 45 -9 52 -2 19 19 -15 41 -69 47 -38 4 -56 1
-81 -15z"/>
<path d="M3145 4372 c-66 -22 -104 -74 -111 -154 -10 -128 83 -208 213 -182
42 8 75 36 63 53 -7 13 -14 12 -49 -4 -55 -24 -107 -15 -143 25 -16 17 -28 40
-29 53 0 12 -2 30 -4 40 -6 33 16 86 46 111 36 30 85 34 131 10 20 -11 34 -12
40 -6 37 37 -84 77 -157 54z"/>
<path d="M3430 4360 c-56 -30 -85 -82 -85 -154 1 -98 55 -163 145 -173 90 -11
163 38 185 123 20 81 -3 149 -68 197 -37 28 -130 32 -177 7z m140 -35 c16 -9
36 -28 43 -43 20 -40 21 -115 3 -151 -31 -59 -113 -79 -167 -40 -37 26 -51 53
-54 103 -7 111 84 178 175 131z"/>
<path d="M3742 4205 c1 -174 1 -175 23 -175 22 0 22 3 23 126 0 69 2 127 4
129 2 3 24 -34 49 -80 56 -107 73 -130 91 -122 9 3 35 43 58 89 72 140 70 141
70 -10 0 -133 0 -133 23 -130 22 3 22 4 22 173 l0 170 -26 3 c-26 3 -38 -15
-132 -201 l-20 -38 -53 93 c-29 51 -54 98 -54 104 0 17 -35 44 -57 44 -20 0
-21 -5 -21 -175z"/>
<path d="M4192 4204 l0 -175 26 3 c26 3 27 5 27 66 l0 62 42 1 c24 1 48 3 53
4 6 1 14 3 19 4 6 0 21 11 34 24 33 30 42 76 23 121 -20 47 -64 66 -154 66
l-69 0 -1 -176z m168 109 c12 -15 17 -34 14 -51 -8 -44 -29 -59 -82 -58 l-47
1 -1 60 c0 33 1 64 4 68 2 4 24 7 49 6 33 -2 49 -9 63 -26z"/>
<path d="M4521 4313 c-14 -38 -31 -84 -39 -103 -8 -19 -14 -37 -14 -40 0 -3
-4 -12 -9 -21 -4 -9 -17 -39 -28 -68 l-21 -51 26 0 c20 0 28 9 44 45 l19 45
76 0 c73 0 76 -1 85 -27 6 -16 14 -35 19 -43 9 -17 51 -27 51 -12 0 9 -88 238
-117 305 -13 29 -22 37 -42 37 -23 0 -29 -8 -50 -67z m109 -145 c0 -5 -27 -8
-59 -8 l-60 0 13 33 c7 17 21 54 31 81 l18 50 29 -75 c15 -40 28 -77 28 -81z"/>
<path d="M4857 4366 c-50 -18 -67 -34 -88 -81 -70 -153 69 -298 232 -244 49
17 51 21 53 93 l2 66 -57 0 c-52 0 -57 -2 -52 -20 4 -14 14 -20 34 -20 26 0
28 -3 27 -36 -1 -39 -14 -49 -70 -53 -43 -3 -92 20 -113 53 -19 29 -26 101
-13 137 24 68 110 98 183 63 31 -14 38 -15 46 -3 13 21 12 24 -23 40 -43 20
-114 22 -161 5z"/>
<path d="M5123 4205 c0 -174 1 -175 23 -175 22 0 22 3 22 118 0 64 1 123 1
131 1 7 38 -36 82 -95 154 -206 154 -206 154 22 0 167 0 169 -22 172 -22 3
-22 1 -25 -127 l-3 -131 -65 88 c-168 227 -167 227 -167 -3z"/>
<path d="M5560 4364 c-67 -29 -100 -88 -96 -171 6 -103 74 -164 179 -159 119
6 188 116 148 238 -29 88 -139 132 -231 92z m131 -40 c79 -40 78 -198 -1 -239
-86 -44 -182 20 -175 117 2 18 3 41 4 52 0 10 16 33 35 52 39 39 86 45 137 18z"/>
<path d="M5872 4205 l-1 -175 23 0 c22 0 23 1 21 123 0 67 1 125 3 130 2 4 24
-21 50 -55 60 -81 55 -75 102 -133 22 -27 40 -53 40 -57 0 -13 38 -9 42 5 2 6
4 84 3 172 0 157 -1 160 -22 163 -22 3 -22 1 -25 -127 l-3 -130 -80 107 c-104
139 -115 152 -135 152 -15 0 -17 -19 -18 -175z"/>
<path d="M6263 4361 c-37 -23 -53 -77 -35 -116 11 -24 78 -65 106 -65 43 0 60
-64 26 -95 -23 -21 -82 -16 -109 9 -13 12 -20 13 -29 4 -19 -19 -14 -32 17
-50 18 -10 48 -15 81 -14 47 1 56 5 81 36 49 58 34 124 -33 150 -89 35 -98 41
-98 71 0 46 62 66 107 34 18 -13 22 -13 34 1 11 13 10 19 -10 33 -33 25 -99
26 -138 2z"/>
<path d="M6611 4205 l0 -176 91 2 c96 2 129 12 167 53 50 53 56 166 13 225
-40 55 -67 66 -172 69 l-98 4 -1 -177z m185 120 c83 -34 85 -198 3 -240 -15
-8 -52 -15 -81 -15 l-54 0 0 135 0 135 48 0 c27 0 64 -7 84 -15z"/>
<path d="M6979 4363 c-6 -94 2 -225 15 -256 40 -96 183 -102 243 -11 14 22 17
50 18 153 l0 126 -25 0 c-24 0 -24 0 -26 -115 -2 -148 0 -137 -29 -165 -27
-27 -79 -33 -106 -12 -32 25 -39 56 -39 176 l0 121 -25 0 c-17 0 -25 -6 -26
-17z"/>
<path d="M188 3925 c-2 -2 -32 -6 -68 -9 -89 -9 -98 -11 -107 -20 -4 -4 -8
-100 -8 -212 l-1 -205 31 5 c83 14 214 75 300 140 63 48 195 178 195 193 0 19
-86 71 -146 89 -45 13 -187 27 -196 19z"/>
<path d="M2444 3870 c-196 -67 -308 -253 -298 -498 10 -266 181 -445 429 -451
194 -4 345 99 414 282 24 65 32 119 33 206 0 238 -135 426 -339 471 -66 15
-179 10 -239 -10z m214 -112 c144 -35 222 -155 227 -348 3 -126 -38 -234 -113
-300 -55 -49 -117 -69 -202 -65 -179 9 -286 137 -288 347 -1 94 13 161 46 223
28 52 39 65 85 100 65 49 157 65 245 43z"/>
<path d="M5350 3875 c-152 -43 -268 -175 -304 -346 -12 -60 -14 -195 -2 -248
33 -150 130 -276 252 -327 52 -22 69 -26 147 -31 183 -14 333 71 413 232 39
80 55 150 55 250 2 228 -109 400 -299 464 -71 24 -190 27 -262 6z m257 -137
c99 -49 161 -165 167 -308 10 -243 -119 -398 -320 -386 -138 9 -231 91 -272
240 -16 58 -9 222 12 281 35 97 114 173 202 194 61 14 160 5 211 -21z"/>
<path d="M6215 3878 c-119 -45 -177 -130 -178 -258 -1 -134 57 -198 239 -261
129 -44 174 -84 174 -153 0 -96 -58 -157 -153 -162 -62 -3 -115 14 -173 55
-59 43 -80 41 -106 -13 l-21 -45 33 -28 c83 -70 145 -91 257 -89 77 1 94 5
142 31 61 34 115 99 133 159 18 60 14 175 -6 214 -36 70 -90 105 -252 163
-131 48 -172 112 -129 203 23 47 69 71 140 71 50 0 70 -6 119 -33 32 -18 64
-31 72 -28 7 3 22 23 34 45 l20 40 -22 22 c-46 43 -127 73 -213 76 -44 1 -93
-3 -110 -9z"/>
<path d="M3189 3828 c0 -65 0 -844 0 -875 1 -21 6 -23 59 -23 l57 0 0 360 c0
197 3 356 6 352 4 -4 46 -83 94 -177 129 -251 196 -378 208 -392 14 -18 72
-16 88 3 8 9 75 139 150 288 75 148 141 272 145 273 5 2 9 -156 8 -352 l-1
-355 57 0 57 0 0 475 0 475 -62 0 c-38 0 -66 -5 -73 -12 -5 -7 -81 -155 -168
-328 l-159 -315 -88 175 c-48 96 -123 243 -166 325 l-78 150 -67 3 -66 3 -1
-53z"/>
<path d="M4339 3863 c-1 -26 -1 -884 0 -910 1 -21 5 -23 66 -23 l65 0 0 175 0
175 98 0 c186 0 282 46 345 165 17 32 21 58 22 135 0 144 -40 215 -155 269
-52 25 -65 26 -247 29 -182 4 -193 3 -194 -15z m343 -103 c108 -30 158 -166
101 -276 -32 -63 -97 -91 -217 -93 l-96 -2 0 191 0 190 88 0 c48 0 104 -5 124
-10z"/>
<path d="M6649 3870 c0 -5 -1 -26 -1 -45 0 -19 1 -42 1 -50 1 -13 24 -15 141
-15 l140 0 0 -415 0 -415 65 0 c60 0 65 2 66 23 0 12 1 199 1 415 l1 392 139
0 c85 0 138 4 139 10 0 6 1 26 1 45 0 19 -1 42 -1 50 -1 13 -46 15 -346 15
-223 0 -345 -4 -346 -10z"/>
<path d="M659 3706 c-2 -3 -17 -7 -33 -10 -32 -6 -68 -28 -106 -64 -50 -47
-176 -127 -245 -153 -83 -32 -167 -43 -224 -30 l-42 9 6 -56 c7 -72 16 -141
21 -167 2 -11 8 -45 14 -75 10 -59 11 -63 33 -160 23 -96 89 -294 138 -408
l42 -100 46 23 c25 13 101 41 168 64 136 45 203 84 250 145 54 71 61 135 25
241 -25 74 -23 281 3 425 5 27 13 83 21 145 3 22 9 55 14 73 19 72 -3 102 -75
102 -28 0 -54 -2 -56 -4z"/>
<path d="M1063 3396 c-130 -42 -205 -164 -199 -325 2 -64 8 -87 39 -146 83
-162 88 -278 20 -425 -95 -204 -112 -314 -82 -528 7 -45 9 -85 6 -88 -13 -13
-53 25 -77 72 -23 45 -25 59 -24 174 1 106 6 145 33 255 18 72 35 143 38 159
5 28 4 28 -24 13 -48 -26 -96 -44 -133 -51 -19 -3 -45 -8 -58 -11 -12 -2 -60
-5 -105 -6 -80 -2 -184 -22 -200 -38 -9 -9 23 -73 101 -201 133 -217 326 -442
518 -601 75 -63 258 -199 268 -199 2 0 34 -18 71 -40 210 -128 496 -238 754
-289 113 -23 132 -26 306 -47 59 -6 432 -7 490 0 22 2 71 7 108 11 37 3 78 8
90 11 12 2 39 6 62 9 297 43 632 172 895 342 98 64 266 192 325 248 165 156
254 249 247 262 -4 7 -32 39 -62 71 -30 32 -86 92 -125 133 -38 41 -122 131
-187 199 -64 69 -128 139 -143 155 -15 17 -57 60 -92 97 l-65 68 -32 -26 c-17
-14 -47 -40 -66 -58 -380 -345 -754 -497 -1203 -491 -428 7 -788 183 -1059
520 -85 106 -196 299 -223 385 -4 14 -11 30 -15 35 -13 19 -61 184 -79 272
-17 85 -19 88 -47 90 -16 1 -48 -4 -71 -11z"/>
</g>
</svg>
